<svg width="193" height="194" viewBox="0 0 193 194" fill="none" xmlns="http://www.w3.org/2000/svg">
<path d="M79.9723 25.3394C82.1814 25.3394 83.9723 27.1302 83.9723 29.3394V29.8706L83.8785 30.3081L83.691 31.0269L83.941 31.4331C84.4822 32.3239 84.8377 33.484 84.6285 34.7769C84.5573 35.2089 84.3455 35.5804 84.191 35.9331C84.7021 36.5103 85.2594 37.2929 85.4098 38.4019C85.6644 40.2927 84.6855 41.624 83.9723 42.3394C84.7309 42.8701 86.3626 44.209 86.0973 46.5894C85.9798 47.6323 85.4646 48.3782 85.0348 48.9019C85.4136 49.6386 85.7293 50.5661 85.5348 51.6519C85.302 52.9431 84.5436 53.7798 84.066 54.2144C83.6951 54.5512 83.2777 54.746 82.941 54.9331C83.0897 55.5506 83.1687 56.2118 83.066 56.9331L83.0035 57.5269L82.9098 58.0894C82.8327 58.6169 82.6603 59.116 82.5035 59.6206L82.5348 59.6519C83.4693 60.7115 84.3156 62.4056 83.8785 64.4331L83.6285 65.5581C83.5168 66.073 83.2871 66.543 83.0973 67.0269C83.4902 67.4917 83.8762 67.954 84.2223 68.4331L85.0348 69.5581C85.436 70.1136 85.8221 70.9028 85.9098 71.8706C85.9963 72.8511 85.754 73.7339 85.3785 74.4331C84.7208 75.6487 83.6537 76.3235 83.066 76.6519C83.0796 76.6935 83.1154 76.7351 83.1285 76.7769L83.2848 77.3394L83.441 77.8081L83.2848 77.9331L83.4723 77.9019L83.441 77.8081H83.4723L83.941 78.4019L84.4098 78.9644C84.7693 79.4003 85.1142 79.9109 85.3785 80.4956L85.8785 82.4644L85.941 83.0269L85.9723 83.5894C86.0619 84.7294 85.7482 85.7465 85.316 86.6519C85.9074 87.5395 86.3961 88.6285 86.4098 89.9331V91.0581C86.4136 91.4285 86.4536 91.8125 86.4723 92.1831V92.7456L86.5035 93.3081C86.5515 94.2809 86.3448 95.44 85.566 96.4644C84.8225 97.4417 83.8456 97.9095 83.0973 98.1519L82.5035 98.3706L82.3473 98.4019L82.2223 98.4331L81.6285 98.5581C81.1181 98.7944 80.5718 98.9644 79.9723 98.9644C77.7632 98.9644 75.9723 97.1735 75.9723 94.9644V91.7456L78.441 91.1206V90.6519L78.316 90.5269L77.8785 89.9644C77.3792 89.2948 76.9354 88.3744 76.8473 87.2456C76.7585 86.0963 77.0634 85.0782 77.5348 84.2769L77.8785 83.7144L77.941 83.6519L77.7848 83.4956L77.316 82.9331C76.7117 82.204 76.1687 81.3262 75.8473 80.3081L75.4723 79.1831C75.4035 78.9645 75.3156 78.7175 75.191 78.4644L74.6285 77.3394C73.8494 75.7495 74.0955 74.0341 74.941 72.7456C75.3448 72.1304 75.8526 71.6805 76.316 71.3394L75.9723 70.9644C75.4704 70.3766 74.959 69.5548 74.7535 68.4956C74.5389 67.3846 74.7036 66.311 75.1285 65.4019L75.4098 64.8394L75.6598 64.2769C75.7029 64.1845 75.7292 64.1004 75.7535 64.0269L75.5348 63.8081C74.4831 62.6084 73.6788 60.687 74.4723 58.5269L74.6598 57.9644L74.8785 57.4019C74.9433 57.2257 74.984 57.067 75.0035 56.9331L75.0348 56.8706L74.691 56.4644C74.2535 55.9085 73.7825 55.0639 73.691 53.9956C73.598 52.8981 73.9434 51.9521 74.3785 51.2456C74.6072 50.8749 74.9154 50.6073 75.191 50.3394C74.9119 49.725 74.6622 49.0052 74.7535 48.1206C74.8559 47.1429 75.3195 46.4277 75.7223 45.9019C75.0859 44.944 74.639 43.6395 75.0035 42.1519L75.2535 41.0269L76.0035 39.2769C75.614 38.7669 75.2547 38.1051 75.0973 37.2769C74.7956 35.6747 75.4252 34.4244 76.066 33.5894C75.4871 32.1077 75.5934 30.6447 75.816 29.6519L76.066 28.5581L76.1285 28.5894C76.4859 26.7467 78.0252 25.3394 79.9723 25.3394ZM83.4723 77.9019L83.2848 77.9331L83.441 77.8081L83.4723 77.9019Z" fill="#64748B"/>
<path d="M101.886 22.0577C104.096 22.0577 105.886 23.8486 105.886 26.0577V27.9952L104.511 29.1827L103.824 29.7452C104.46 30.3355 105.356 31.4074 105.449 33.0265C105.474 33.487 105.413 33.9184 105.324 34.3077C105.509 34.4309 105.732 34.555 105.918 34.714C106.345 35.0815 106.939 35.7229 107.293 36.6827C107.695 37.7762 107.643 38.9392 107.199 39.964C106.922 40.6021 106.516 41.0543 106.168 41.4015C106.425 42.3359 106.446 43.3673 106.011 44.4015C105.893 44.6813 105.662 44.8891 105.511 45.1202C105.893 45.5463 106.272 46.0143 106.543 46.589L106.824 47.1515L107.074 47.714C107.841 49.3488 107.545 51.0648 106.699 52.3077C106.344 52.8261 105.888 53.2105 105.48 53.5265C105.768 53.7237 106.124 53.926 106.418 54.2452C106.981 54.8605 107.704 55.9915 107.605 57.5265C107.507 58.9927 106.715 59.9705 106.199 60.464C106.157 60.504 106.085 60.5201 106.043 60.5577C106.079 60.6322 106.134 60.699 106.168 60.7765L106.543 62.1202L106.636 62.6827L106.699 63.2452C106.869 64.4016 106.546 65.3118 106.136 66.089C106.564 66.4839 107.114 67.0861 107.418 67.9952C107.849 69.2878 107.639 70.567 107.074 71.5577C106.878 71.9003 106.612 72.1608 106.386 72.4015L106.73 72.8702L107.136 73.4327C107.761 74.2774 108.275 75.5242 108.074 76.9952C107.882 78.3745 107.134 79.3513 106.543 79.9327L105.98 80.5265L105.824 82.6202L105.73 83.1827L105.605 83.7452C105.433 84.6749 105 85.419 104.543 86.0577L104.949 86.3077L105.824 86.8702C106.38 87.2299 107.982 88.3691 108.168 90.5265C108.366 92.897 106.724 94.2966 106.105 94.7452L105.886 94.9015V97.1515C105.886 99.3606 104.096 101.151 101.886 101.151C101.812 101.151 101.741 101.093 101.668 101.089L101.011 101.151H100.105C99.6374 101.151 98.5068 101.128 97.4177 100.401C96.7915 99.9826 96.2119 99.3328 95.8552 98.4952C95.5148 97.6906 95.4799 96.9255 95.5427 96.339L95.574 95.964L95.6052 95.6202L96.1365 93.8702C96.3683 93.3833 96.6326 92.9856 96.824 92.714L97.199 92.1515L97.6052 91.589C97.7378 91.4008 97.8963 91.231 98.0427 91.0577C97.7947 90.8198 97.5122 90.6092 97.2927 90.339L96.824 89.7765L96.3865 89.214C95.723 88.3972 95.0801 87.1138 95.2927 85.5265C95.4921 84.0516 96.3421 83.0561 96.949 82.4952L97.5427 81.9327L97.8865 81.6202L97.949 81.1515C97.9762 80.9995 97.9836 80.8532 97.9802 80.714V79.589C97.9456 78.1435 98.5531 77.0374 99.199 76.1827C99.1394 76.1081 99.0724 76.0388 99.0115 75.964L98.5427 75.3702L98.074 74.8077C97.2651 73.8092 96.6326 72.2067 97.2302 70.4015C97.2519 70.3363 97.3001 70.2767 97.324 70.214C96.8681 69.8311 96.1236 69.12 95.7927 67.964C95.4004 66.5829 95.7626 65.287 96.3552 64.3702C96.7021 63.8342 97.1546 63.4911 97.5115 63.214C97.1238 62.8756 96.6306 62.3981 96.2927 61.6827C95.8095 60.6583 95.7232 59.4553 96.1365 58.3077C96.2977 57.8638 96.5343 57.4941 96.7615 57.1827C96.2836 56.5932 95.7475 55.809 95.6052 54.7452L95.4802 53.6202C95.2606 51.9739 95.9269 50.6698 96.6052 49.8702C96.9045 49.5192 97.3099 49.3054 97.6365 49.0577C96.9621 48.569 95.525 47.3514 95.5427 45.214C95.5631 43.2687 96.8012 42.1372 97.5115 41.589C97.3667 40.8928 97.3136 40.1308 97.5427 39.339C97.566 39.2588 97.6412 39.197 97.6677 39.1202C97.1459 38.7107 96.5766 38.146 96.199 37.339C95.7712 36.4214 95.6086 35.3351 95.9177 34.2452C96.009 33.9238 96.188 33.6602 96.324 33.4015C95.677 32.5438 95.0109 31.4475 95.1052 29.964L95.1365 29.4015L95.199 28.839C95.292 27.385 96.0413 26.3192 96.4177 25.839C96.8819 25.2478 97.4473 24.7009 98.0115 24.214L98.9177 23.464C99.6509 22.6255 100.685 22.0577 101.886 22.0577Z" fill="#64748B"/>
<path d="M94.134 128.499C94.5783 128.64 94.9684 128.831 95.259 129.031L95.884 129.593L96.4465 130.156C96.5589 130.272 96.6022 130.443 96.6965 130.562C97.3868 129.99 98.7234 129.214 100.478 129.718C101.187 129.923 101.711 130.299 102.103 130.656C102.611 130.486 103.198 130.358 103.884 130.437C104.274 130.482 104.601 130.627 104.915 130.749L104.947 130.718L105.915 130.062C106.394 129.815 107.019 129.598 107.79 129.593C109.715 129.582 110.853 130.812 111.322 131.562C111.456 131.778 111.488 132.018 111.572 132.218C111.63 132.229 111.7 132.204 111.759 132.218C111.807 132.23 111.838 132.299 111.884 132.312C112.452 132.174 113.155 132.092 113.947 132.312C115.278 132.685 115.947 133.565 116.353 134.312C117.047 134.423 117.783 134.672 118.478 135.343C118.539 135.334 118.6 135.318 118.665 135.312C119.194 135.263 120.152 135.272 121.134 135.843C123.435 137.189 123.178 139.629 123.134 139.968C123.127 140.023 123.08 140.071 123.072 140.124C123.432 140.064 123.84 139.927 124.29 139.968C124.865 140.021 125.779 140.227 126.634 140.937C127.427 141.597 127.796 142.447 127.978 143.218C129.207 144.74 128.947 146.447 128.759 147.093L128.728 147.124C129.06 147.367 129.408 147.656 129.697 148.062C129.754 148.143 129.772 148.262 129.822 148.343L129.884 148.374C130.287 148.568 130.923 148.948 131.447 149.656C132.027 150.441 132.287 151.421 132.228 152.374C132.215 152.569 132.076 152.731 132.04 152.906C132.343 153.683 132.497 154.476 132.322 155.249C132.233 155.638 131.966 155.911 131.822 156.187C132.17 156.963 132.379 157.927 132.04 159.031C131.862 159.606 131.541 160.025 131.259 160.374C131.468 160.602 131.716 160.847 131.915 161.156L132.165 161.531C132.43 161.945 132.957 162.966 132.759 164.343C132.526 165.937 131.485 166.892 130.759 167.312C130.123 167.678 129.534 167.8 129.259 167.843C128.941 167.892 128.649 167.905 128.447 167.906H127.822L127.634 167.874L127.54 167.843C125.992 168.02 124.417 167.286 123.603 165.843L123.54 165.781L122.134 163.281L121.978 163.124L121.79 162.874C121.457 162.473 121.169 161.901 120.978 161.218L119.822 159.124L120.915 159.218C121.056 158.532 121.305 157.981 121.603 157.562C121.455 157.109 121.348 156.601 121.384 156.031C121.441 155.14 121.797 154.464 122.103 153.999C122.09 153.627 122.065 153.279 122.134 152.968C121.713 152.62 121.364 152.171 121.072 151.593C120.484 151.115 119.96 150.521 119.697 149.718C119.526 149.194 119.467 148.695 119.478 148.281C119.375 148.296 119.276 148.366 119.165 148.374C118.563 148.419 116.995 148.406 115.759 147.062C114.989 146.224 114.787 145.293 114.728 144.593C114.28 144.423 113.868 144.138 113.447 143.749C113.22 143.807 112.991 143.95 112.728 143.968C111.896 144.023 110.897 143.845 110.009 143.187C109.508 142.814 109.181 142.363 108.947 141.968C108.616 141.972 108.258 142.031 107.884 141.937C106.62 141.612 105.828 140.781 105.415 140.156L105.228 139.874L105.165 139.812C105.094 139.813 105.02 139.845 104.947 139.843H104.697L104.447 139.812C104.1 139.802 103.805 139.666 103.509 139.593C102.706 140.13 101.436 140.735 99.8215 140.187L99.7903 140.156C99.3767 140.363 98.8677 140.578 98.259 140.624C97.9049 140.65 97.5753 140.587 97.259 140.531C96.6439 140.901 95.8295 141.222 94.7903 141.124C94.5675 141.103 94.3622 141.018 94.1653 140.968C93.9467 141.126 93.7613 141.374 93.4778 141.499L93.259 141.593L93.0715 141.687C91.788 142.253 90.6116 141.967 89.759 141.593C88.9345 141.731 88.1905 141.665 87.6028 141.437C87.5645 141.422 87.5149 141.39 87.4778 141.374C87.1961 141.936 86.7582 142.608 85.9465 143.093C84.9372 143.696 83.9592 143.718 83.1965 143.593C82.6875 143.916 82.1685 144.075 81.6653 144.156C81.3695 144.404 81.0694 144.577 80.759 144.718C80.4946 145.071 80.203 145.463 79.759 145.749C79.1229 146.156 78.4807 146.259 77.9465 146.312V146.343C77.8505 146.406 77.7295 146.416 77.634 146.468C77.6489 147.03 77.5732 147.731 77.1965 148.468L77.1028 148.687L77.0403 148.812L76.9465 150.312C76.8328 150.83 76.5988 151.356 76.259 151.874L76.134 152.093L76.009 152.281C75.619 152.873 75.1053 153.23 74.634 153.531C74.6061 153.583 74.6336 153.666 74.6028 153.718C73.9099 154.89 72.8545 155.367 72.259 155.562C71.9236 155.671 71.5933 155.687 71.2903 155.718C71.1026 155.9 70.9217 156.056 70.7278 156.187C70.8688 156.486 71.0289 156.833 71.1028 157.249C71.3178 158.48 70.9877 159.862 70.009 160.874L68.634 162.249L68.6028 162.218C67.1513 163.765 64.7655 163.951 63.134 162.562C61.9846 161.581 61.5984 160.101 61.884 158.718C61.7254 158.57 61.503 158.457 61.3528 158.281C61.1212 158.008 59.708 156.321 60.509 154.031L60.5715 153.781L60.6653 153.531C60.9433 152.738 61.4036 152.071 61.9465 151.531L62.134 151.343L62.3215 151.124L63.384 150.343C63.7333 150.136 64.067 149.959 64.384 149.843L64.7278 149.718L64.884 149.656C65.4432 148.713 66.2424 148.159 66.8528 147.906C67.5483 147.62 68.1874 147.571 68.509 147.562C68.5511 147.561 68.5929 147.562 68.634 147.562C68.8127 147.418 68.9555 147.259 69.134 147.156L68.6653 146.624C68.3437 146.25 67.9385 145.76 67.634 145.187C67.4796 144.896 67.2848 144.44 67.1653 143.874C67.0465 143.31 66.9655 142.368 67.384 141.343L67.4778 141.093L67.6028 140.812L68.3215 139.593C68.6096 139.225 68.9332 138.877 69.3215 138.593L69.5715 138.437L69.7903 138.249C70.8361 137.49 71.9313 137.408 72.6965 137.468C72.9409 136.868 73.3768 136.191 74.1653 135.656C74.2893 135.571 74.4168 135.503 74.5403 135.437C74.7767 135.012 75.1247 134.572 75.634 134.187C77.2169 132.99 78.8733 133.391 79.4465 133.593L79.509 133.624C79.616 133.563 79.7031 133.46 79.8215 133.406C80.3304 133.175 80.8394 133.087 81.2903 133.062C81.3513 132.866 81.3858 132.643 81.4778 132.437C81.7197 131.896 82.1776 131.083 83.0715 130.468L83.3215 130.312L83.5403 130.156L85.0403 129.531C85.5736 129.416 86.123 129.401 86.6653 129.499C87.6036 129.672 88.2836 130.125 88.634 130.406C88.7701 130.515 88.8302 130.696 88.9465 130.812C89.0168 130.799 89.0926 130.822 89.1653 130.812C89.2542 130.618 89.3413 130.368 89.509 130.124C89.7465 129.78 90.2395 129.17 91.0715 128.749C92.0216 128.271 93.1215 128.184 94.134 128.499ZM126.79 159.499L126.853 159.718L127.134 159.218L126.79 159.499ZM126.853 159.718L126.79 159.499L127.134 159.218L126.853 159.718ZM127.728 156.593L127.447 157.312L127.697 157.937L127.79 156.749L127.728 156.593ZM127.79 156.749L127.697 157.937L127.447 157.312L127.728 156.593L127.79 156.749ZM127.728 153.874L127.665 154.343L127.853 154.093L127.728 153.874ZM127.853 154.093L127.665 154.343L127.728 153.874L127.853 154.093ZM69.9778 149.374L69.7278 151.218L70.509 150.874L70.7278 149.312L69.9778 149.374ZM70.509 150.874L69.7278 151.218L69.9778 149.374L70.7278 149.312L70.509 150.874ZM123.415 149.468L123.259 149.718L123.634 149.656L123.478 149.937L124.072 149.812L123.415 149.468ZM123.415 149.468L124.072 149.812L123.478 149.937L123.634 149.656L123.259 149.718L123.415 149.468ZM124.603 147.874C124.635 147.865 124.664 147.844 124.665 147.843L124.54 147.874H124.603ZM126.322 144.124L125.447 144.249L125.103 144.593L125.978 144.468L126.322 144.124ZM125.572 144.531L125.103 144.593L125.447 144.249L125.915 144.187L125.572 144.531ZM125.978 144.468L125.572 144.531L125.915 144.187L126.322 144.124L125.978 144.468ZM78.3215 139.124L77.759 140.031L77.2903 140.437L77.6028 140.312L77.134 141.031L78.2278 140.624L78.0403 140.937L78.5403 140.812L78.9465 140.374L77.134 141.031L77.6028 140.312L77.2903 140.437L77.759 140.031L78.1653 139.343L78.509 139.218L78.5403 139.187L78.3215 139.124ZM78.5403 140.812L78.0403 140.937L78.2278 140.624L78.9465 140.374L78.5403 140.812ZM117.634 139.156L116.947 139.749L117.197 139.843L117.54 139.562L117.447 139.374H117.384L117.634 139.156L117.884 139.249L118.197 138.999L118.228 139.499L118.54 139.531L118.228 139.406L118.197 138.999L117.884 139.249L117.634 139.156ZM117.447 139.374L117.54 139.562L117.197 139.843L116.947 139.749L117.384 139.374H117.447ZM118.54 139.531L118.228 139.499V139.406L118.54 139.531ZM78.5403 139.187L78.509 139.218L78.1653 139.343L78.3215 139.124L78.5403 139.187ZM78.7903 139.124L79.009 139.031L78.9153 138.999L78.7903 139.124ZM79.009 139.031L78.7903 139.124L78.9153 138.999L79.009 139.031ZM81.4778 138.124L81.634 138.156L81.759 138.031L81.4778 138.124ZM81.634 138.156L81.4778 138.124L81.759 138.031L81.634 138.156ZM80.0715 137.999L80.009 138.031L80.134 137.999H80.0715ZM80.009 138.031L80.0715 137.999H80.134L80.009 138.031ZM89.009 136.718L90.3215 136.187L89.7903 136.156L89.009 136.718ZM90.3215 136.187L89.009 136.718L89.7903 136.156L90.3215 136.187ZM88.8528 135.437L88.9153 135.374C88.9302 135.32 88.9122 135.266 88.9153 135.249L88.8528 135.437ZM104.822 134.624L104.79 134.968L105.04 134.874L104.822 134.624ZM105.04 134.874L104.79 134.968L104.822 134.624L105.04 134.874Z" fill="#64748B"/>
<path d="M130.281 0.75C131.971 0.660348 133.603 1.0068 135.125 1.6875L136.625 2.375L138.125 3.03125C138.896 3.377 139.654 3.6183 140.375 3.78125L141.875 4.125L143.312 4.46875C143.313 4.46888 143.396 4.45241 143.531 4.375L145.031 3.53125L146.531 2.65625C147.856 1.90341 149.332 1.47936 150.875 1.53125L152.438 1.75L153.938 2.09375L155.438 2.46875C155.698 2.52908 155.94 2.50693 156.25 2.40625L157.75 1.9375L159.25 1.4375C160.867 0.910068 162.547 0.80265 164.219 1.0625L165.844 1.3125L167.438 1.5625C169.687 1.91368 171.501 3.14993 172.75 4.90625L173.781 6.375L174.812 7.8125C175.157 8.29706 175.389 8.41804 175.438 8.4375L176.812 8.96875L178.156 9.5C179.497 10.0334 180.722 10.8019 181.812 11.75L182.969 12.75L184.094 13.75C185.521 14.9915 186.46 16.5903 186.844 18.4375L187.469 21.4375C187.639 22.2544 187.861 23.0348 188.125 23.7812L188.625 25.1875L189.125 26.5625C189.581 27.8497 189.855 29.1958 189.938 30.5625L190.031 32.0625L190.094 33.5625C190.193 35.2183 189.912 36.829 189.281 38.3438L188.031 41.3438C187.9 41.6606 187.903 41.8578 187.938 42.0312L188.5 45.0312C188.643 45.7557 188.869 46.5112 189.188 47.2812L190.438 50.2812C191.243 52.2322 191.28 54.3109 190.5 56.2812L189.906 57.7812L189.375 59.0625L190.125 60.4375L190.906 61.9375C191.686 63.4226 192.139 65.0414 192.156 66.75L192.188 68.25V69.75C192.2 71.1402 192.003 72.5274 191.625 73.875L191.219 75.375L190.781 76.875C190.669 77.2744 190.677 77.6347 190.75 78L191.031 79.5L191.344 81C191.754 83.03 191.345 84.995 190.406 86.7188L189.594 88.2188L188.781 89.6562L189.25 91.0312L189.75 92.5312C190.101 93.5832 190.446 94.6334 190.75 95.6875L191.156 97.1875L191.594 98.6875C192.067 100.328 192.132 102.018 191.75 103.688L191.062 106.688C190.8 107.834 190.457 108.992 190.062 110.125L189.562 111.625L189.062 113L189.812 114.5L190.594 116C191.733 118.251 191.611 120.689 190.375 122.812L188.625 125.812C188.358 126.27 188.34 126.546 188.344 126.688L188.406 129.688C188.436 130.718 188.463 131.751 188.469 132.781V134.281L188.5 135.781C188.503 136.192 188.575 136.672 188.812 137.219L190.125 140.219C190.686 141.513 191.082 142.848 191.281 144.219L191.719 147.219C191.891 148.411 191.975 149.615 191.969 150.812L191.938 152.312V153.812C191.929 155.303 191.67 156.783 191.156 158.188L190.594 159.688L190.062 161.188C189.727 162.108 189.407 162.987 189.156 163.844L188.75 165.281L188.344 166.688C188.155 167.332 188.032 168.007 188 168.688L187.938 170.188L187.844 171.656C187.762 173.383 187.224 175.005 186.25 176.438L185.438 177.688L184.594 178.906C183.817 180.047 182.885 181.073 181.812 181.938L180.656 182.844L179.531 183.781C178.68 184.467 177.782 185.112 176.875 185.719L175.656 186.531L174.469 187.344C173.533 187.97 172.535 188.552 171.5 189.094L168.75 190.531C166.609 191.65 164.31 191.556 162.281 190.594L160.75 189.844L159.5 189.25L158.281 189.906L156.781 190.719C155.201 191.562 153.448 191.989 151.594 191.844L150.094 191.75L148.594 191.625C148.112 191.587 147.602 191.621 147.062 191.781L145.562 192.25L144.062 192.688C141.646 193.412 139.363 192.771 137.562 191.469L136.062 190.375L134.844 189.469L133.875 189.875L132.375 190.469C131.059 190.99 129.7 191.324 128.312 191.469L125.312 191.781C123.575 191.962 121.886 191.681 120.312 191L117.312 189.688C117.192 189.635 117.12 189.628 117.094 189.625C117.074 189.623 117.035 189.607 116.969 189.625L115.469 190.062L113.969 190.469C112.694 190.822 111.4 191.032 110.094 191.094L108.594 191.156L107.094 191.25C106.243 191.29 105.387 191.364 104.531 191.5L103.031 191.75L101.531 191.969C100.015 192.21 98.4939 192.161 97 191.812L95.5 191.469L94 191.094C93.8373 191.056 93.653 191.077 93.375 191.188L90.375 192.375C88.8365 192.987 87.1993 193.244 85.5312 193.094L82.5312 192.844C81.2556 192.728 79.9947 192.468 78.75 192.094L77.25 191.656L75.75 191.188C75.1112 190.996 74.4945 190.904 73.9062 190.906H72.4062L70.9062 190.938C69.4711 190.941 68.0622 190.69 66.6875 190.25L65.1875 189.781L63.6875 189.281C63.0839 189.088 62.5107 189.026 61.9688 189.031H60.4688L58.9688 189.062C58.2424 189.072 57.4938 189.154 56.75 189.312L55.25 189.625L53.75 189.969C52.5655 190.223 51.3524 190.389 50.1562 190.469L47.1562 190.656C46.3931 190.708 45.6245 190.842 44.8438 191.031L43.3438 191.375L41.8438 191.75C40.2281 192.141 38.5838 192.141 36.9688 191.75L33.9688 191C33.4726 190.879 32.9662 190.862 32.4688 190.938L30.9688 191.188L29.4375 191.406C27.606 191.683 25.8101 191.389 24.1562 190.562L22.75 189.875L21.375 189.188C20.3436 188.67 19.3719 188.095 18.4375 187.5L17.1875 186.719L15.9688 185.969C15.5234 185.686 14.9306 185.412 14.1562 185.188L12.5625 184.719L10.9375 184.219C9.83622 183.899 8.74188 183.323 7.84375 182.375C6.94166 181.422 6.4041 180.298 6.15625 179.156L5.8125 177.531L5.46875 175.938C5.38218 175.538 5.19098 175.196 4.90625 174.875L2.71875 172.375C1.23637 170.706 0.53236 168.609 0.84375 166.344L1.28125 163.156C1.38621 162.395 1.41356 161.685 1.34375 161.031L1.1875 159.531L1 158.031C0.863167 156.755 0.870186 155.464 1 154.188L1.3125 151.188C1.38154 150.501 1.37129 149.815 1.28125 149.125L1.09375 147.625L0.875 146.125C0.700665 144.794 0.711513 143.457 0.875 142.125L1.25 139.125C1.38473 138.035 1.53996 136.931 1.75 135.844L2.03125 134.344L2.34375 132.844C2.52308 131.916 2.6842 130.989 2.8125 130.062L3 128.562L3.21875 127.062C3.34674 126.138 3.45333 125.205 3.53125 124.281L3.78125 121.281C3.85274 120.431 3.86686 119.568 3.84375 118.719L3.78125 115.719C3.77724 115.573 3.7289 115.253 3.40625 114.75L1.46875 111.75C0.131604 109.66 -0.136994 107.164 1.03125 104.812L2.53125 101.812C2.70673 101.456 2.70406 101.247 2.6875 101.125L2.46875 99.625L2.28125 98.125C2.14326 97.1072 2.02666 96.0805 1.90625 95.0625L1.53125 92.0625C1.38236 90.7982 1.36106 89.517 1.46875 88.25L1.71875 85.25C1.75603 84.793 1.72579 84.3038 1.5625 83.7812L0.625 80.7812C0.0807132 79.0328 0.0436626 77.2286 0.5625 75.4688L1 73.9688L1.46875 72.4688C1.80284 71.3367 2.1981 70.212 2.65625 69.0938L3.25 67.5938L3.875 66.0938C3.95849 65.8901 3.96402 65.7877 3.9375 65.6875L3.5 64.1875L3.09375 62.6875C2.77482 61.5417 2.52166 60.3765 2.34375 59.2188L2.125 57.7188L1.875 56.2188C1.69408 55.0384 1.60611 53.8431 1.59375 52.6562L1.5625 51.1562V49.6562C1.55517 48.9091 1.46348 48.1363 1.3125 47.375L1.03125 45.875L0.71875 44.375C0.395766 42.7405 0.47875 41.0952 0.9375 39.5L1.8125 36.5C2.01609 35.7942 2.1262 35.1041 2.15625 34.4375L2.28125 31.4375C2.33779 30.1529 2.53911 28.888 2.875 27.6562L3.25 26.2188L3.65625 24.8125C3.98297 23.62 4.41356 22.4684 4.96875 21.375L5.625 20.0938L6.28125 18.8438C6.64167 18.1339 6.96481 17.3379 7.28125 16.5L7.84375 15.0625L8.375 13.625C9.12623 11.6359 10.5904 10.13 12.5625 9.3125L15.375 8.125C16.5146 7.65259 17.678 7.2906 18.8438 7.03125L20.25 6.71875L21.625 6.40625C22.2326 6.27149 22.8526 6.07736 23.4688 5.78125L26.1562 4.46875C26.5831 4.26279 26.9196 4.11652 27.1562 4L27.4375 3.84375L27.6562 3.71875L27.8438 3.625C28.7796 3.09989 29.7158 3.09816 29.8125 3.09375C30.122 3.08031 30.412 3.07792 30.625 3.09375C31.0702 3.12696 31.5873 3.19629 32.125 3.28125L33.625 3.53125L35.125 3.75C35.4918 3.80796 35.8809 3.79225 36.3125 3.65625L39.3125 2.71875C40.486 2.3496 41.6823 2.06831 42.875 1.875L45.875 1.375C47.4497 1.12203 49.0279 1.20351 50.5625 1.625L52.0625 2.0625L53.5625 2.46875C53.9028 2.56174 54.2035 2.55048 54.5312 2.46875L57.5312 1.71875C59.093 1.32961 60.6997 1.28348 62.2812 1.59375L63.7812 1.90625L65.2812 2.1875C65.6458 2.25765 66.0056 2.26849 66.4062 2.15625L69.4062 1.28125C71.3433 0.732965 73.2912 0.932554 75.0938 1.71875L76.5938 2.34375L78.0938 3C78.993 3.39221 79.8915 3.75719 80.7812 4.0625L82.2812 4.5625L83.6562 5.0625L86.6562 3.5C88.0702 2.7697 89.598 2.31528 91.1875 2.1875L94.1875 1.9375C95.6724 1.81913 97.1575 1.97226 98.5938 2.375L100.094 2.8125L101.594 3.21875C101.71 3.25001 101.823 3.2707 102.031 3.1875L103.531 2.59375L105.031 1.96875C106.826 1.25701 108.743 1.13911 110.625 1.6875L113.625 2.5625C113.904 2.6433 114.132 2.63973 114.406 2.5625L115.906 2.15625L117.406 1.71875C118.708 1.35074 120.037 1.16363 121.375 1.125L122.875 1.0625L124.375 1.03125C125.339 1.00424 126.317 0.95737 127.281 0.90625L128.781 0.84375L130.281 0.75ZM129.219 8.8125L127.719 8.90625C126.69 8.96085 125.654 9.00232 124.625 9.03125L121.625 9.09375C120.968 9.11214 120.288 9.2414 119.594 9.4375L118.094 9.84375L116.594 10.2812C114.87 10.7688 113.094 10.7509 111.375 10.25L108.375 9.375C108.265 9.34334 108.167 9.32734 107.969 9.40625L104.969 10.5938C103.187 11.3028 101.282 11.4323 99.4062 10.9062L96.4062 10.0938C95.8486 9.93846 95.3219 9.8653 94.8125 9.90625L91.8125 10.1562C91.4046 10.1901 90.9243 10.3257 90.3438 10.625L88.8438 11.4062L87.3438 12.1562C85.4486 13.1351 83.3186 13.3719 81.2188 12.6562L79.7188 12.1562L78.2188 11.625C77.1144 11.2466 76.001 10.8211 74.9062 10.3438L71.9062 9.03125C71.7805 8.9764 71.7037 8.96999 71.6875 8.96875C71.672 8.96813 71.6466 8.98515 71.5938 9L70.0938 9.40625L68.5938 9.84375C67.001 10.2946 65.3485 10.351 63.7188 10.0312L60.7188 9.46875C60.304 9.3886 59.9034 9.39163 59.4688 9.5L56.4688 10.25C54.798 10.6664 53.0954 10.6431 51.4375 10.1875L49.9375 9.78125L48.4375 9.34375C47.9795 9.21857 47.5432 9.21348 47.125 9.28125L45.625 9.53125L44.125 9.75C43.326 9.88014 42.5057 10.0859 41.6875 10.3438L38.6875 11.2812C37.1224 11.7727 35.5045 11.9137 33.875 11.6562L32.375 11.4375L30.875 11.1875C30.7966 11.1751 30.7236 11.1663 30.6562 11.1562C30.3615 11.3015 30.0164 11.4986 29.625 11.6875L28.2812 12.3438L26.9688 12.9688C25.8181 13.5239 24.6089 13.9441 23.375 14.2188L21.9688 14.5312L20.5938 14.8438C19.9135 14.9946 19.1844 15.2217 18.4375 15.5312L17.0312 16.125L15.7812 16.5938L15.3125 17.9062L14.7812 19.3438C14.3705 20.4314 13.908 21.4806 13.4062 22.4688L12.75 23.7188L12.0938 25C11.7893 25.6003 11.5623 26.2525 11.375 26.9375L10.9688 28.3438L10.5938 29.75C10.4171 30.3962 10.3127 31.0749 10.2812 31.7812L10.1562 34.7812C10.0978 36.108 9.87242 37.4278 9.5 38.7188L8.625 41.7188C8.5137 42.1095 8.4946 42.4599 8.5625 42.8125L9.1875 45.8125C9.43313 47.0511 9.55021 48.3096 9.5625 49.5625V51.0625L9.59375 52.5625C9.60167 53.3705 9.6564 54.1854 9.78125 55L10.0312 56.5L10.25 58C10.3784 58.8365 10.5452 59.6828 10.7812 60.5312L11.2188 62.0312L11.625 63.5312C12.1519 65.4245 12.0132 67.3392 11.2812 69.125L10.6562 70.625L10.0625 72.125C9.70438 72.9989 9.37919 73.8586 9.125 74.7188L8.25 77.7188C8.18057 77.9541 8.17345 78.1598 8.25 78.4062L9.1875 81.4062C9.64757 82.8784 9.818 84.3989 9.6875 85.9375L9.4375 88.9375C9.3757 89.6645 9.383 90.3953 9.46875 91.125L9.84375 94.125C9.95934 95.1023 10.0862 96.0851 10.2188 97.0625L10.4062 98.5625L10.625 100.062C10.8794 101.938 10.4997 103.739 9.6875 105.375L8.9375 106.875L8.4375 107.844L9.15625 108.938L10.125 110.438C11.0854 111.935 11.699 113.646 11.75 115.5L11.8125 117L11.8438 118.5C11.875 119.646 11.8463 120.793 11.75 121.938L11.5 124.938C11.4099 126.009 11.2731 127.086 11.125 128.156L10.9375 129.656L10.7188 131.156C10.5707 132.225 10.3937 133.308 10.1875 134.375L9.625 137.375C9.44977 138.283 9.2994 139.188 9.1875 140.094L8.8125 143.094C8.73051 143.758 8.7254 144.429 8.8125 145.094L9 146.594L9.21875 148.094C9.38804 149.393 9.3821 150.697 9.25 152L9.125 153.5L8.96875 155C8.89518 155.723 8.89112 156.464 8.96875 157.188L9.28125 160.188C9.42407 161.529 9.40638 162.889 9.21875 164.25L9 165.844L8.8125 167.188L9.78125 168.312L10.9062 169.562C12.0922 170.899 12.9004 172.47 13.2812 174.219L13.625 175.844L13.8125 176.75L14.7812 177.031L16.4062 177.5C17.7905 177.902 19.1006 178.467 20.2812 179.219L21.5 180L22.7188 180.75C23.4109 181.191 24.1622 181.627 24.9688 182.031L27.7188 183.406C27.9036 183.499 28.0563 183.529 28.25 183.5L29.75 183.281L31.2812 183.031C32.811 182.8 34.3407 182.884 35.8438 183.25L37.3438 183.594L38.8438 183.969C39.2239 184.061 39.5893 184.061 39.9688 183.969L41.4688 183.625L42.9688 183.25C44.1786 182.958 45.3976 182.77 46.625 182.688L48.125 182.594L49.625 182.469C50.4289 182.415 51.247 182.3 52.0625 182.125L55.0625 181.5C56.3135 181.232 57.5752 181.08 58.8438 181.062L60.3438 181.031H61.8438C63.2973 181.012 64.7341 181.241 66.125 181.688L69.125 182.625C69.7413 182.823 70.3187 182.938 70.875 182.938L72.375 182.906H73.875C75.2863 182.902 76.7017 183.122 78.0625 183.531L79.5625 183.969L81.0625 184.438C81.8075 184.661 82.5355 184.81 83.25 184.875L86.25 185.125C86.5765 185.154 86.952 185.117 87.4062 184.938L90.4062 183.75C92.1274 183.064 93.976 182.883 95.8125 183.312L97.3125 183.656L98.8125 184.031C99.3146 184.149 99.8013 184.17 100.281 184.094L103.281 183.594C104.422 183.413 105.573 183.304 106.719 183.25L108.219 183.188L109.719 183.094C110.408 183.06 111.123 182.95 111.844 182.75L114.844 181.938C116.77 181.405 118.708 181.567 120.5 182.344L123.5 183.656C123.919 183.836 124.243 183.871 124.5 183.844L127.5 183.531C128.109 183.467 128.758 183.301 129.438 183.031L132.438 181.844L134.281 181.375C135.487 181.251 136.652 181.474 137.719 181.938L139.25 182.812L140.75 183.906L142.125 184.906L143.25 184.594L144.75 184.125C146.205 183.689 147.705 183.537 149.219 183.656L150.719 183.75L152.219 183.875C152.36 183.886 152.617 183.878 153.031 183.656L154.531 182.844L156.031 182.062L157.625 181.406C158.735 181.105 159.876 181.097 161 181.344L162.656 181.906L164.188 182.625L165.438 183.188L166.406 182.719L167.781 182C168.575 181.585 169.317 181.144 170 180.688L172.438 179.062C173.148 178.587 173.831 178.071 174.5 177.531L175.656 176.625L176.781 175.688C177.232 175.324 177.63 174.904 177.969 174.406L178.812 173.188L179.656 171.938C179.791 171.736 179.863 171.538 179.875 171.281L179.938 169.781L180 168.312C180.062 167.003 180.289 165.694 180.656 164.438L181.062 163.031L181.5 161.594C181.803 160.56 182.141 159.506 182.531 158.438L183.094 156.938L183.625 155.438C183.842 154.844 183.934 154.29 183.938 153.781V152.281L183.969 150.781C183.973 149.983 183.898 149.18 183.781 148.375L183.344 145.375C183.254 144.757 183.082 144.102 182.781 143.406L181.469 140.406C180.838 138.955 180.509 137.401 180.5 135.812L180.469 134.312V132.812C180.463 131.847 180.434 130.872 180.406 129.906L180.344 126.906C180.292 125.052 180.821 123.321 181.719 121.781L182.594 120.281L183.219 119.156L182.688 118.125L181.938 116.625C180.97 114.724 180.746 112.59 181.469 110.5L182.531 107.5C182.832 106.635 183.055 105.758 183.25 104.906L183.938 101.906C184.013 101.577 184.009 101.264 183.906 100.906L183.469 99.4062L183.062 97.9062C182.79 96.9604 182.473 96.0104 182.156 95.0625L181.156 92.0625C180.443 89.9208 180.723 87.7612 181.75 85.875L182.594 84.375L183.406 82.875C183.486 82.7258 183.497 82.6434 183.5 82.625V82.5938L183.188 81.0938L182.906 79.5938C182.576 77.9602 182.644 76.3181 183.094 74.7188L183.5 73.2188L183.938 71.7188C184.119 71.0719 184.192 70.4483 184.188 69.8438V68.3438L184.156 66.8438C184.154 66.5581 184.081 66.1667 183.812 65.6562L182.25 62.6562C181.214 60.6834 181.026 58.4568 181.875 56.3125L182.469 54.8125L183.062 53.3438L181.812 50.3438C181.303 49.1143 180.907 47.8377 180.656 46.5625L180.375 45.0625L180.062 43.5625C179.706 41.7403 179.926 39.9285 180.625 38.25L181.875 35.25C182.075 34.7674 182.146 34.3717 182.125 34.0312L181.938 31.0312C181.899 30.4076 181.793 29.8147 181.594 29.25L181.094 27.8438L180.594 26.4688C180.204 25.3681 179.898 24.2254 179.656 23.0625L179.031 20.0625C179.001 19.9171 178.942 19.8671 178.844 19.7812L177.719 18.7812L176.562 17.7812C176.132 17.4077 175.69 17.1261 175.219 16.9375L172.469 15.875C170.702 15.1708 169.32 13.9296 168.281 12.4688L166.219 9.53125C166.18 9.4772 166.141 9.45405 166.125 9.4375L164.594 9.21875L163 8.96875C162.529 8.89522 162.13 8.93932 161.75 9.0625L160.25 9.53125L158.75 10.0312C157.067 10.5805 155.297 10.6629 153.562 10.25L152.062 9.90625L150.594 9.53125C150.565 9.54349 150.521 9.59511 150.469 9.625L147.469 11.3125C145.719 12.3093 143.717 12.751 141.625 12.2812L138.625 11.5938C137.353 11.3069 136.097 10.8908 134.875 10.3438L133.375 9.65625L131.875 9C131.402 8.7881 131.024 8.73474 130.719 8.75L129.219 8.8125Z" fill="#64748B"/>
</svg>
